#!OML:ASF E:\motion texture\Top Level 1\Subject 1\Session 1\male.ASF
:FULLY-SPECIFIED
:DEGREES
381
root 4.86733 18.0846 4.95403 394.247 -77.285 -388.597
lowerback -0.473172 2.90581 5.82758
upperback -2.63822 3.91411 1.98589
thorax -2.20534 1.83191 -1.25661
lowerneck -18.0737 -8.26795 -9.47625
upperneck 17.1821 -10.9943 9.6677
head 9.48008 -4.80258 3.32617
rclavicle -1.35981e-014 4.17448e-014
rhumerus 43.4655 -12.8682 -68.1075
rradius 79.9539
rwrist 35.2506
rhand -6.79663 -43.6643
rfingers 7.12502
rthumb 19.0664 -432.75
lclavicle -1.35981e-014 4.17448e-014
lhumerus -31.1197 13.6843 69.1732
lradius 24.215
lwrist -38.1966
lhand -3.12485 19.5932
lfingers 7.12502
lthumb 22.5941 48.2909
rfemur -15.5736 -3.74407 29.5149
rtibia 16.3423
rfoot -5.31933 -15.8385
rtoes 21.7482
lfemur -16.2214 -4.88416 -5.95484
ltibia 52.3693
lfoot 3.07338 3.18432
ltoes -14.5204
382
root 4.73995 18.0933 4.93517 395.651 -77.5389 -389.981
lowerback -0.506635 2.99642 5.96058
upperback -2.64196 4.03227 2.00052
thorax -2.1756 1.88831 -1.31331
lowerneck -18.0506 -8.26575 -9.49149
upperneck 17.1785 -11.0022 9.72163
head 9.48002 -4.80284 3.34669
rclavicle -7.66874e-015 1.39149e-014
rhumerus 42.1518 -12.1195 -67.5962
rradius 79.1329
rwrist 34.9378
rhand -5.70375 -42.074
rfingers 7.12502
rthumb 20.1171 -431.052
lclavicle -7.66874e-015 1.39149e-014
lhumerus -31.4753 14.4605 68.9547
lradius 23.8646
lwrist -38.4267
lhand -2.90866 19.4187
lfingers 7.12502
lthumb 22.8016 48.091
rfemur -14.9445 -3.48428 29.842
rtibia 15.9805
rfoot -5.55191 -15.6081
rtoes 21.7494
lfemur -17.0503 -4.63885 -5.88444
ltibia 52.7446
lfoot 2.65274 3.36794
ltoes -14.2772
383
root 4.61347 18.1012 4.91676 397.05 -77.7831 -391.353
lowerback -0.537703 3.0842 6.08095
upperback -2.64517 4.14667 2.01055
thorax -2.14694 1.94313 -1.36766
lowerneck -18.0274 -8.2642 -9.5088
upperneck 17.1661 -11.01 9.77784
head 9.47716 -4.80305 3.36833
rclavicle 1.04704e-014 1.15295e-014
rhumerus 40.7788 -11.3424 -67.1117
rradius 78.4316
rwrist 34.6238
rhand -4.86992 -40.6274
rfingers 7.12502
rthumb 20.9184 -429.519
lclavicle 1.04704e-014 1.15295e-014
lhumerus -31.8328 15.1585 68.7668
lradius 23.581
lwrist -38.5933
lhand -2.72518 19.2462
lfingers 7.12502
lthumb 22.9777 47.8967
rfemur -14.3283 -3.23864 30.1507
rtibia 15.6283
rfoot -5.78106 -15.3835
rtoes 21.7399
lfemur -17.8713 -4.40396 -5.83057
ltibia 53.0216
lfoot 2.17927 3.56175
ltoes -14.0719
384
root 4.48781 18.1083 4.89881 398.444 -78.0175 -392.714
lowerback -0.568166 3.16849 6.1887
upperback -2.6468 4.25629 2.01734
thorax -2.11751 1.99592 -1.41813
lowerneck -18.0054 -8.26312 -9.52756
upperneck 17.1461 -11.0171 9.83495
head 9.47195 -4.80302 3.39056
rclavicle 1.24427e-014 1.76918e-014
rhumerus 39.3495 -10.5356 -66.6619
rradius 77.8403
rwrist 34.3104
rhand -4.28426 -39.3228
rfingers 7.12502
rthumb 21.481 -428.152
lclavicle 1.24427e-014 1.76918e-014
lhumerus -32.1891 15.7851 68.6117
lradius 23.36
lwrist -38.698
lhand -2.57697 19.0787
lfingers 7.12502
lthumb 23.1199 47.7114
rfemur -13.7265 -3.01037 30.4422
rtibia 15.2888
rfoot -6.00782 -15.1614
rtoes 21.719
lfemur -18.6813 -4.17924 -5.79108
ltibia 53.1975
lfoot 1.65973 3.76542
ltoes -13.9053
385
root 4.36294 18.1146 4.88128 399.827 -78.2414 -394.057
lowerback -0.596533 3.25007 6.28287
upperback -2.64815 4.36236 2.02166
thorax -2.08961 2.04724 -1.46357
lowerneck -17.9846 -8.26306 -9.55103
upperneck 17.1187 -11.0238 9.89377
head 9.46478 -4.80291 3.41416
rclavicle -1.06505e-014 -2.70347e-014
rhumerus 37.8629 -9.70253 -66.2521
rradius 77.3505
rwrist 34.0059
rhand -3.92268 -38.1564
rfingers 7.12502
rthumb 21.8282 -426.945
lclavicle -1.06505e-014 -2.70347e-014
lhumerus -32.5444 16.3282 68.4977
lradius 23.2032
lwrist -38.7298
lhand -2.4615 18.9198
lfingers 7.12502
lthumb 23.2307 47.5387
rfemur -13.1389 -2.79832 30.7164
rtibia 14.9599
rfoot -6.23176 -14.9441
rtoes 21.6874
lfemur -19.4791 -3.96591 -5.76534
ltibia 53.2694
lfoot 1.10203 3.978
ltoes -13.7976
